{"glyphs":{" ":{"ha":0,"x_min":0,"x_max":0,"o":""},"A":{"ha":1743,"x_min":0,"x_max":0,"o":"m 838 44 l 353 44 b 201 108 293 44 243 65 b 139 258 160 150 139 200 l 139 758 b 201 910 139 818 160 868 b 353 972 243 951 293 972 l 1389 972 b 1542 910 1449 972 1499 951 b 1604 758 1583 868 1604 818 l 1604 258 b 1542 108 1604 200 1583 150 b 1389 44 1499 65 1449 44 l 904 44 l 904 -194 l 1204 -194 b 1222 -212 1217 -194 1222 -200 l 1222 -243 b 1204 -261 1222 -256 1217 -261 l 538 -261 b 519 -243 525 -261 519 -256 l 519 -212 b 538 -194 519 -200 525 -194 l 838 -194 m 353 907 b 204 758 271 907 204 840 l 204 258 b 353 111 204 176 271 111 l 1389 111 b 1538 258 1471 111 1538 176 l 1538 758 b 1389 907 1538 840 1471 907 "},"B":{"ha":1925,"x_min":0,"x_max":0,"o":"m 1633 185 l 1778 0 b 1811 -182 1826 -65 1838 -125 b 1650 -267 1785 -239 1731 -267 l 353 -267 b 192 -182 272 -267 218 -239 b 225 0 165 -125 176 -65 l 368 183 l 368 792 b 424 925 368 843 386 888 b 557 979 461 961 506 979 l 1446 979 b 1579 925 1497 979 1542 961 b 1633 792 1615 888 1633 843 m 557 914 b 435 792 489 914 435 858 l 435 207 l 1568 207 l 1568 792 b 1446 914 1568 858 1513 914 m 418 140 l 278 -40 b 353 -200 213 -125 246 -200 l 1650 -200 b 1725 -40 1757 -200 1790 -125 l 1585 140 m 1181 -135 b 1199 -115 1193 -135 1199 -128 l 1199 -86 b 1181 -68 1199 -74 1193 -68 l 822 -68 b 804 -86 810 -68 804 -74 l 804 -115 b 822 -135 804 -128 810 -135 "},"C":{"ha":985,"x_min":0,"x_max":0,"o":"m 607 972 b 776 903 672 972 729 949 b 846 733 822 856 846 799 l 846 -26 b 776 -196 846 -92 822 -149 b 607 -265 729 -242 672 -265 l 376 -265 b 208 -196 311 -265 254 -242 b 139 -26 163 -149 139 -92 l 139 733 b 208 903 139 799 163 856 b 376 972 254 949 311 972 m 376 906 b 256 856 329 906 289 889 b 204 733 221 822 204 782 l 204 -26 b 256 -149 204 -75 221 -115 b 376 -199 289 -182 329 -199 l 607 -199 b 729 -149 654 -199 694 -182 b 779 -26 763 -115 779 -75 l 779 733 b 729 856 779 782 763 822 b 607 906 694 889 654 906 m 593 754 b 611 772 606 754 611 760 l 611 801 b 593 821 611 814 606 821 l 392 821 b 374 801 379 821 374 814 l 374 772 b 392 754 374 760 379 754 l 593 754 m 492 0 b 424 -68 454 0 424 -31 b 492 -137 424 -107 454 -137 b 561 -68 531 -137 561 -107 b 492 0 561 -31 531 0 "},"D":{"ha":1261,"x_min":0,"x_max":0,"o":"m 890 972 b 1054 904 954 972 1008 950 b 1122 740 1100 858 1122 804 l 1122 -49 b 1054 -212 1122 -112 1100 -167 b 890 -281 1008 -258 954 -281 l 371 -281 b 207 -212 307 -281 253 -258 b 139 -49 161 -167 139 -112 l 139 740 b 207 904 139 804 161 858 b 371 972 253 950 307 972 m 371 906 b 254 857 325 906 286 889 b 206 740 222 825 206 786 l 206 -49 b 254 -165 206 -94 222 -133 b 371 -214 286 -197 325 -214 l 890 -214 b 1007 -165 936 -214 975 -197 b 1056 -49 1039 -133 1056 -94 l 1056 740 b 1007 857 1056 786 1039 825 b 890 906 975 889 936 906 m 679 -36 b 679 -132 706 -62 706 -104 b 583 -132 651 -158 610 -158 b 583 -36 556 -104 556 -62 b 679 -36 610 -8 651 -8 "},"E":{"ha":1031,"x_min":0,"x_max":0,"o":"m 643 983 b 719 1004 664 1010 689 1017 b 757 935 750 990 763 967 l 679 469 l 844 469 b 901 435 871 469 889 458 b 896 368 913 411 911 389 l 421 -269 b 344 -290 400 -296 375 -303 b 307 -221 314 -276 301 -253 l 385 243 l 219 243 b 164 279 193 243 175 256 b 168 344 151 303 153 324 m 692 936 l 224 310 l 463 310 l 374 -222 l 840 404 l 601 404 "},"F":{"ha":1297,"x_min":0,"x_max":0,"o":"m 139 842 b 200 903 139 876 167 903 l 501 903 b 563 842 535 903 563 875 l 563 288 b 606 213 563 253 576 228 b 692 213 635 197 663 197 b 735 288 721 228 735 253 l 735 842 b 796 903 735 876 763 903 l 1097 903 b 1158 842 1131 903 1158 875 l 1158 288 b 1000 -92 1158 126 1094 -11 b 649 -217 904 -172 776 -217 b 299 -92 521 -217 393 -172 b 139 288 203 -11 139 126 m 496 663 l 496 838 l 204 838 l 204 663 m 1092 663 l 1092 838 l 800 838 l 800 663 m 204 288 b 1092 288 204 -296 1092 -296 l 1092 597 l 800 597 l 800 288 b 649 136 800 193 725 136 b 496 288 571 136 496 193 l 496 597 l 204 597 "},"G":{"ha":1403,"x_min":0,"x_max":0,"o":"m 1100 747 b 1264 349 1210 638 1264 504 b 1100 -50 1264 193 1210 61 b 701 -214 990 -160 857 -214 b 304 -50 546 -214 414 -160 b 139 349 194 61 139 193 b 304 747 139 504 194 638 b 701 911 414 857 546 911 b 1100 747 857 911 990 857 m 701 846 b 593 833 664 846 628 842 l 682 493 b 701 494 686 493 696 494 b 847 349 781 494 847 428 b 826 275 847 325 840 300 l 1103 56 b 1199 349 1167 143 1199 242 b 1054 701 1199 486 1150 604 b 701 846 957 797 839 846 m 531 815 b 342 692 460 789 396 749 l 619 472 m 300 642 b 204 349 236 554 204 456 b 350 -4 204 211 253 93 b 701 -149 446 -100 564 -149 b 810 -136 739 -149 775 -144 l 721 204 b 701 203 715 204 707 203 b 556 349 622 203 556 269 b 576 422 556 372 563 397 m 646 404 b 646 293 614 372 614 325 b 757 293 678 261 725 261 b 757 404 789 325 789 372 b 646 404 725 436 678 436 m 872 -118 b 1061 6 943 -92 1007 -51 l 783 225 "},"H":{"ha":1404,"x_min":0,"x_max":0,"o":"m 1101 746 b 1265 347 1211 636 1265 503 b 1101 -51 1265 192 1211 60 b 703 -215 992 -161 858 -215 b 304 -51 547 -215 414 -161 b 139 347 194 60 139 192 b 304 746 139 503 194 636 b 703 910 414 856 547 910 b 1101 746 858 910 992 856 m 351 699 b 206 347 254 601 206 485 b 351 -4 206 210 254 93 b 703 -150 449 -101 565 -150 b 1054 -4 840 -150 957 -101 b 1199 347 1150 93 1199 210 b 1054 699 1199 485 1150 601 b 703 844 957 796 840 844 b 351 699 565 844 449 796 m 515 550 b 589 478 556 550 589 518 b 515 406 589 439 556 406 b 443 478 476 406 443 439 b 515 550 443 518 476 550 m 940 529 b 961 478 954 515 961 499 b 889 406 961 439 929 406 b 817 478 849 406 817 439 b 940 529 817 542 896 574 m 1017 158 b 824 8 968 85 904 35 b 582 8 743 -19 663 -19 b 388 158 500 35 436 85 b 393 183 381 168 383 176 l 418 200 b 443 194 428 207 436 204 b 703 56 504 101 590 56 b 963 194 815 56 901 101 b 988 200 968 204 976 206 l 1013 183 b 1017 158 1022 176 1024 168 "},"I":{"ha":1468,"x_min":0,"x_max":0,"o":"m 390 621 l 139 621 l 139 688 l 390 688 l 390 933 l 456 933 l 456 688 l 1017 688 b 1029 686 1022 688 1026 688 l 1278 935 l 1325 888 l 1076 639 b 1078 626 1078 636 1078 632 l 1078 65 l 1329 65 l 1329 0 l 1078 0 l 1078 -247 l 1011 -247 l 1011 0 l 451 0 b 390 61 418 0 390 28 m 456 113 l 965 621 l 456 621 m 1011 65 l 1011 575 l 503 65 "},"J":{"ha":1414,"x_min":0,"x_max":0,"o":"m 740 814 l 740 381 l 1174 381 l 1071 483 l 1117 531 l 1257 390 b 1257 304 1281 367 1281 328 l 1117 164 l 1071 210 l 1174 314 l 740 314 l 740 -119 l 844 -17 l 890 -62 l 750 -203 b 664 -203 726 -226 688 -226 l 524 -62 l 571 -17 l 675 -119 l 675 314 l 240 314 l 344 210 l 297 164 l 157 304 b 157 390 133 328 133 367 l 297 531 l 344 483 l 240 381 l 675 381 l 675 814 l 571 710 l 524 757 l 664 897 b 750 897 688 921 726 921 l 890 757 l 844 710 "},"K":{"ha":1674,"x_min":0,"x_max":0,"o":"m 1321 829 b 1472 767 1381 829 1431 808 b 1535 615 1514 724 1535 674 l 1535 140 b 1472 -11 1535 82 1514 32 b 1321 -74 1431 -53 1381 -74 l 353 -74 b 201 -11 293 -74 243 -53 b 139 140 160 32 139 82 l 139 615 b 201 767 139 674 160 724 b 353 829 243 808 293 829 m 353 763 b 206 615 271 763 206 694 l 1469 615 b 1321 763 1469 697 1403 763 m 206 394 l 206 140 b 353 -7 206 61 271 -7 l 1321 -7 b 1469 140 1403 -7 1469 58 l 1469 394 "},"L":{"ha":1831,"x_min":0,"x_max":0,"o":"m 921 549 b 1121 657 981 622 1047 658 b 1408 481 1258 656 1344 549 b 1558 422 1454 431 1504 401 b 1636 458 1579 429 1613 458 b 1696 383 1675 458 1706 422 b 1565 161 1674 294 1631 221 b 1351 46 1500 101 1428 63 b 1117 54 1275 28 1196 31 b 921 182 1036 76 971 119 b 726 54 871 119 806 76 b 492 46 647 31 568 28 b 279 161 415 63 344 101 b 147 383 214 221 169 294 b 150 422 143 397 143 410 b 244 444 167 460 213 471 b 322 415 271 424 296 414 b 721 657 440 421 508 651 b 921 549 794 658 861 622 m 885 493 b 722 590 849 525 807 593 b 325 350 540 588 485 356 b 214 385 288 349 251 361 b 332 201 235 311 275 250 b 515 108 389 153 450 121 b 714 118 581 94 647 97 b 874 229 781 139 833 175 b 968 229 903 267 940 267 b 1406 133 1065 97 1256 69 b 1628 385 1508 172 1594 267 b 1518 350 1593 361 1556 349 b 1119 590 1357 356 1301 588 b 885 493 982 592 953 414 "},"M":{"ha":1518,"x_min":0,"x_max":0,"o":"m 1114 488 l 1147 -135 b 975 -176 1161 -279 1010 -315 l 854 229 l 679 53 l 715 -122 b 576 -183 738 -206 635 -260 l 432 -10 l 250 143 b 315 279 181 194 231 301 l 490 242 l 667 418 l 253 540 b 193 572 226 547 207 558 b 185 660 167 600 164 629 b 315 710 208 697 253 714 l 925 676 l 1182 933 b 1371 746 1308 1060 1497 868 m 951 610 l 308 644 b 253 632 282 646 264 642 b 285 600 240 621 251 610 l 792 450 l 511 169 l 304 214 b 293 193 286 218 278 208 b 475 33 383 117 443 64 b 629 -144 506 1 557 -57 b 651 -133 644 -160 656 -151 l 607 75 l 886 354 l 1036 -154 b 1082 -139 1054 -210 1085 -203 l 1046 514 l 1324 792 b 1296 904 1358 836 1344 888 b 1229 888 1271 913 1249 907 "},"N":{"ha":1226,"x_min":0,"x_max":0,"o":"m 882 918 b 1028 858 939 918 988 899 b 1088 713 1068 818 1088 769 l 1088 -1 b 1028 -147 1088 -58 1068 -107 b 882 -207 988 -187 939 -207 l 269 -207 b 213 -150 238 -207 213 -182 l 213 8 l 158 8 b 140 26 146 8 140 14 l 140 57 b 158 75 140 69 146 75 l 213 75 l 213 218 l 157 218 b 139 236 144 218 139 224 l 139 265 b 157 283 139 278 144 283 l 213 283 l 213 426 l 157 426 b 139 444 144 426 139 432 l 139 475 b 157 493 139 488 144 493 l 213 493 l 213 636 l 157 636 b 139 654 144 636 139 642 l 139 683 b 157 701 139 696 144 701 l 213 701 l 213 860 b 229 901 213 875 218 889 b 269 918 242 913 256 918 m 279 8 l 279 -142 l 814 -142 l 814 851 l 279 851 l 279 701 l 333 701 b 351 683 346 701 351 696 l 351 654 b 333 636 351 642 346 636 l 279 636 l 279 493 l 333 493 b 351 475 346 493 351 488 l 351 444 b 333 426 351 432 346 426 l 279 426 l 279 283 l 335 283 b 353 265 347 283 353 278 l 353 236 b 335 218 353 224 347 218 l 279 218 l 279 75 l 335 75 b 353 57 347 75 353 69 l 353 26 b 335 8 353 14 347 8 m 881 -142 b 1021 -1 958 -142 1021 -81 l 1021 713 b 881 851 1021 790 958 851 "},"O":{"ha":1268,"x_min":0,"x_max":0,"o":"m 932 940 b 974 836 960 911 974 876 b 828 692 974 757 910 692 b 682 836 746 692 682 757 b 932 940 674 963 849 1032 m 768 897 b 768 776 735 864 735 808 b 889 776 800 743 856 743 b 889 897 921 808 921 864 b 768 897 856 929 800 929 m 549 719 b 549 624 521 692 521 650 b 644 624 575 596 617 596 b 644 719 671 650 671 692 b 549 719 617 746 575 746 m 968 588 b 950 569 968 575 963 569 b 879 508 899 569 879 560 l 879 175 l 1113 -57 b 1151 -200 1158 -103 1172 -150 b 1019 -274 1131 -249 1088 -274 l 310 -274 b 178 -200 242 -274 199 -249 b 217 -57 157 -150 171 -103 l 450 175 l 450 508 b 379 569 450 560 431 569 b 361 588 367 569 361 575 l 361 618 b 381 636 361 631 368 636 b 517 508 469 632 517 599 l 517 149 l 261 -106 b 310 -208 213 -157 236 -208 l 1019 -208 b 1068 -106 1093 -208 1118 -157 l 813 149 l 813 508 b 949 636 813 599 860 632 b 968 618 961 636 968 631 "},"P":{"ha":1417,"x_min":0,"x_max":0,"o":"m 1111 708 b 1278 306 1222 597 1278 463 b 1038 -160 1278 118 1189 -50 b 1011 -156 1028 -167 1018 -165 l 994 -132 b 999 -107 988 -122 989 -114 b 1128 25 1050 -69 1093 -26 l 1072 58 b 1065 82 1061 63 1058 71 l 1081 108 b 1106 115 1088 118 1096 121 l 1161 83 b 1211 272 1190 144 1207 207 l 1147 272 b 1129 290 1135 272 1129 278 l 1129 321 b 1147 339 1129 333 1135 339 l 1211 339 b 1161 528 1207 404 1190 468 l 1106 496 b 1081 503 1094 490 1086 493 l 1065 529 b 1072 553 1058 540 1061 549 l 1128 586 b 989 724 1089 642 1043 688 l 957 668 b 932 663 950 658 942 656 l 906 676 b 899 701 896 683 893 692 l 932 757 b 742 808 872 788 808 804 l 742 744 b 724 726 742 732 736 726 l 694 726 b 675 744 682 726 675 732 l 675 808 b 486 757 610 804 546 788 l 518 701 b 511 676 525 692 522 683 l 486 663 b 461 668 475 657 467 658 l 429 724 b 290 586 374 688 328 642 l 346 553 b 353 529 357 547 360 539 l 338 503 b 313 496 332 493 324 490 l 257 528 b 206 339 228 472 211 410 l 271 339 b 289 321 283 339 289 333 l 289 290 b 271 272 289 278 283 272 l 206 272 b 257 83 211 204 228 140 l 313 115 b 338 108 322 121 331 118 l 353 82 b 346 58 360 72 357 64 l 290 25 b 419 -107 322 -24 365 -68 b 424 -132 429 -112 431 -121 l 406 -156 b 381 -160 399 -165 390 -167 b 139 306 229 -50 139 118 b 306 708 139 463 194 597 b 708 875 417 819 551 875 b 1111 708 865 875 1000 819 m 708 378 b 657 254 644 378 613 300 b 782 306 701 207 782 242 b 774 339 782 318 779 329 l 908 536 b 903 561 915 546 913 554 l 879 578 b 853 574 869 585 860 583 l 721 378 l 708 378 "},"Q":{"ha":1133,"x_min":0,"x_max":0,"o":"m 839 -221 b 778 -279 839 -253 811 -279 l 356 -279 b 294 -221 322 -279 294 -253 l 294 26 b 139 356 199 106 139 224 b 294 685 139 485 199 606 l 294 932 b 356 990 294 964 322 990 l 778 990 b 839 932 811 990 839 964 l 839 685 b 994 356 935 606 994 485 b 839 26 994 224 935 106 m 772 924 l 361 924 l 361 729 b 772 729 483 799 650 799 m 311 611 b 206 356 240 540 206 454 b 311 100 206 256 240 171 b 567 -6 382 29 467 -6 b 822 100 667 -6 751 29 b 928 356 893 171 928 256 b 822 611 928 454 893 540 b 567 717 751 682 667 717 b 311 611 467 717 382 682 m 749 542 b 774 539 758 550 767 549 l 793 517 b 790 492 800 507 800 499 l 567 306 l 417 443 b 415 468 407 450 406 458 l 436 490 b 461 490 443 500 451 500 l 569 393 m 361 -212 l 772 -212 l 772 -19 b 361 -19 643 -90 490 -90 "},"R":{"ha":1408,"x_min":0,"x_max":0,"o":"m 704 913 b 1104 747 860 913 993 857 b 1269 347 1214 636 1269 503 b 1104 -54 1269 190 1214 57 b 704 -219 993 -164 860 -219 b 304 -54 547 -219 414 -164 b 139 347 194 57 139 190 b 304 747 139 503 194 636 b 704 913 414 857 547 913 m 568 828 b 771 524 643 740 711 639 b 1040 715 879 569 969 633 b 704 846 946 803 833 846 b 568 828 660 846 614 840 m 710 500 b 501 803 647 618 578 718 b 213 438 351 738 242 600 b 710 500 408 433 574 454 m 801 464 b 849 354 822 421 838 383 b 1203 343 961 375 1079 371 b 1086 668 1204 464 1165 572 b 801 464 1010 581 914 513 m 783 339 b 739 440 763 389 747 422 b 206 372 592 389 414 365 b 340 3 199 231 243 107 b 783 339 454 176 601 288 m 874 290 b 972 -75 917 172 949 50 b 1199 276 1093 3 1178 131 b 874 290 1082 303 974 308 m 911 -108 b 808 276 888 29 853 157 b 390 -42 635 231 496 125 b 704 -153 482 -115 586 -153 b 911 -108 774 -153 843 -137 "},"S":{"ha":1569,"x_min":0,"x_max":0,"o":"m 313 561 l 172 640 b 171 749 129 664 128 722 l 511 936 b 569 936 531 946 550 946 l 785 819 l 988 931 b 1046 931 1008 940 1028 940 l 1399 739 b 1399 632 1442 717 1442 656 l 1267 560 l 1396 489 b 1397 382 1439 467 1440 406 l 1243 297 l 1243 24 b 1210 -31 1243 0 1232 -18 l 810 -231 b 756 -231 792 -239 774 -239 l 363 -36 b 329 19 340 -24 329 -6 l 329 293 l 174 378 b 174 485 131 401 131 461 m 210 694 l 381 599 l 715 782 l 540 876 m 1017 872 l 854 782 l 1197 597 l 1360 686 m 785 744 l 449 560 l 783 371 l 1128 560 m 381 524 l 213 432 l 553 246 l 715 335 m 851 333 l 1010 244 l 1357 435 l 1197 522 m 750 -154 l 750 278 l 582 186 b 524 186 563 176 543 176 l 394 257 l 394 22 m 817 278 l 817 -154 l 1178 28 l 1178 261 l 1039 185 b 979 185 1018 175 999 175 "},"T":{"ha":1338,"x_min":0,"x_max":0,"o":"m 821 744 b 1142 821 856 874 1040 929 b 1192 638 1193 767 1210 706 b 1065 500 1174 568 1131 522 l 1179 386 b 1179 308 1200 365 1200 331 l 706 -165 b 628 -165 683 -186 649 -186 l 156 307 b 156 385 133 329 133 364 l 313 543 b 383 514 336 569 382 551 b 458 408 385 464 410 429 b 589 433 507 388 550 396 b 508 640 667 510 608 638 b 481 711 474 640 454 685 l 629 858 b 707 858 650 881 685 881 m 668 804 l 561 697 b 636 388 688 664 740 485 b 326 463 539 283 360 336 l 210 346 l 667 -111 l 1124 347 l 986 486 b 976 531 974 499 969 513 b 1013 557 982 546 994 556 b 1094 775 1117 563 1175 694 b 876 693 1015 856 882 796 b 806 665 875 658 832 639 "},"U":{"ha":1428,"x_min":0,"x_max":0,"o":"m 1060 93 b 1035 100 1049 88 1040 90 l 1019 125 b 1026 150 1014 136 1017 144 b 1140 215 1056 168 1094 189 b 1185 221 1154 224 1169 225 b 1222 194 1200 218 1213 210 l 1293 83 b 1288 58 1299 74 1297 65 l 1263 43 b 1238 49 1251 36 1243 39 l 1196 119 b 722 -242 1128 -118 924 -247 b 249 119 521 -247 317 -118 l 207 49 b 182 43 201 39 193 36 l 157 58 b 151 83 147 65 146 74 l 222 194 b 260 221 232 210 244 218 b 304 215 275 225 290 224 b 418 150 350 189 389 168 b 425 125 428 144 431 136 l 410 100 b 385 93 404 90 396 88 l 313 138 b 458 -87 339 42 388 -33 b 693 -176 528 -142 606 -171 l 693 439 l 532 439 b 514 457 519 439 514 444 l 514 488 b 532 506 514 500 519 506 l 693 506 l 693 589 b 557 756 614 604 557 674 b 607 875 557 801 574 842 b 726 925 640 908 681 925 b 847 875 774 925 814 908 b 896 756 879 842 896 801 b 760 589 896 674 839 604 l 760 506 l 921 506 b 939 488 933 506 939 500 l 939 457 b 921 439 939 444 933 439 l 760 439 l 760 -175 b 1132 138 932 -160 1081 -50 m 654 829 b 654 682 614 789 614 722 b 800 682 693 642 760 642 b 800 829 840 722 840 789 b 654 829 760 868 693 868 "},"V":{"ha":1251,"x_min":0,"x_max":0,"o":"m 189 -97 b 157 -36 157 -97 139 -62 b 292 414 247 94 292 244 b 542 771 292 604 396 731 b 515 846 524 793 515 818 b 638 968 515 913 569 968 b 758 846 704 968 758 913 b 732 771 758 818 750 793 b 982 414 878 731 982 604 b 1117 -36 982 244 1026 94 b 1085 -97 1135 -62 1117 -97 l 831 -97 b 443 -97 801 -311 472 -311 m 638 908 b 575 846 603 908 575 881 b 638 785 575 813 603 785 b 699 846 671 785 699 813 b 638 908 699 881 671 908 m 1035 -31 b 917 414 956 99 917 247 b 357 414 917 817 357 817 b 239 -31 357 247 318 99 m 510 -97 b 581 -182 519 -137 543 -165 b 694 -182 618 -197 657 -197 b 764 -97 732 -165 754 -137 "},"W":{"ha":1519,"x_min":0,"x_max":0,"o":"m 1101 726 l 1201 672 b 1228 593 1231 657 1243 622 l 1176 492 l 1226 389 b 1200 310 1239 360 1228 325 l 1171 294 l 1383 50 b 1392 -17 1400 31 1403 8 b 1335 -51 1381 -40 1361 -53 l 1178 -47 l 1128 -217 b 1076 -260 1121 -243 1103 -257 b 1017 -231 1050 -262 1029 -253 l 849 65 l 817 35 b 731 35 790 11 754 13 l 704 63 l 536 -231 b 478 -260 524 -251 504 -261 b 425 -217 451 -257 433 -243 l 376 -47 l 218 -51 b 161 -17 192 -53 172 -40 b 171 50 150 8 153 31 l 385 297 l 351 315 b 325 394 322 331 310 365 l 376 496 l 326 599 b 353 678 314 628 325 663 l 454 731 l 475 843 b 543 892 481 875 511 897 l 656 875 l 738 954 b 821 953 761 976 799 976 l 903 874 l 1015 889 b 1083 839 1047 893 1078 871 m 1018 822 l 908 807 b 858 824 889 804 872 810 l 779 903 l 699 825 b 649 808 683 811 667 806 l 539 825 l 519 717 b 488 674 515 696 504 682 l 389 622 l 438 522 b 438 469 446 504 446 488 l 388 369 l 485 318 b 517 275 501 308 513 293 l 535 165 l 644 181 b 694 164 663 183 679 178 l 774 85 l 854 163 b 904 179 868 176 885 182 l 1014 163 l 1033 271 b 1065 314 1038 292 1049 306 l 1164 365 l 1115 465 b 1115 518 1107 483 1107 500 l 1165 618 l 1068 669 b 1036 713 1051 679 1040 693 m 656 115 l 538 99 b 469 149 506 94 475 117 l 451 261 l 444 265 l 228 15 l 425 19 l 485 -186 m 1111 263 l 1099 257 l 1078 144 b 1010 96 1072 113 1042 90 l 896 117 l 1068 -186 l 1129 19 l 1326 15 "},"X":{"ha":1414,"x_min":0,"x_max":0,"o":"m 1224 915 b 1249 922 1229 925 1238 926 l 1274 907 b 1281 882 1285 900 1288 892 l 1039 463 b 1131 199 1100 385 1131 297 b 1007 -103 1131 81 1089 -19 b 706 -226 924 -185 824 -226 b 406 -103 588 -226 488 -185 b 281 199 322 -19 281 81 b 385 478 281 306 315 399 l 153 882 b 158 907 146 892 149 900 l 185 922 b 210 915 196 926 204 925 l 433 526 b 633 618 494 575 561 606 l 806 915 b 831 922 811 925 819 926 l 856 907 b 863 882 867 900 869 892 l 714 624 b 992 513 821 621 913 583 m 633 742 l 674 804 l 610 915 b 585 922 604 925 596 926 l 560 907 b 553 882 549 900 546 892 m 451 453 b 346 199 381 382 346 297 b 451 -56 346 100 381 15 b 706 -161 522 -126 607 -161 b 960 -56 804 -161 889 -126 b 1064 199 1029 15 1064 100 b 960 453 1064 297 1029 382 b 706 557 889 522 804 557 b 451 453 607 557 522 522 m 735 399 b 754 378 747 399 754 392 l 754 0 b 735 -19 754 -12 747 -19 l 701 -19 b 681 0 688 -19 681 -12 l 681 308 l 599 263 b 568 271 585 256 575 258 l 554 297 b 563 324 547 308 550 317 l 678 390 b 706 399 689 396 699 399 "},"Y":{"ha":1321,"x_min":0,"x_max":0,"o":"m 1024 700 b 1061 492 1003 610 1021 558 b 1124 401 1082 457 1103 428 b 1211 193 1165 350 1206 269 b 890 -261 1226 -32 1081 -199 b 321 -147 701 -332 468 -297 b 182 118 250 -74 203 14 b 208 415 160 221 168 319 b 250 440 215 433 229 442 b 288 410 269 439 282 429 b 376 272 300 375 347 301 b 332 450 350 319 336 379 b 482 843 325 607 375 738 b 879 1013 589 949 722 1006 b 917 946 914 1014 938 975 b 822 703 868 876 838 796 b 822 542 815 649 815 594 b 854 651 829 590 839 626 b 963 749 876 689 913 722 b 1024 700 996 767 1033 738 m 949 660 b 878 500 897 617 874 564 b 785 475 881 443 810 424 b 757 713 753 542 743 621 b 838 943 769 792 796 869 b 517 783 708 928 601 874 b 397 453 432 692 392 582 b 453 244 401 381 421 311 b 444 197 461 226 458 211 b 397 188 431 182 415 179 b 249 333 340 214 290 263 b 253 103 228 260 229 182 b 368 -101 275 24 314 -44 b 863 -201 496 -233 696 -258 b 1146 189 1028 -146 1160 -6 b 1035 413 1140 267 1085 353 b 949 660 985 472 939 565 "},"Z":{"ha":1465,"x_min":0,"x_max":0,"o":"m 732 940 b 1153 767 897 940 1038 882 b 1326 346 1268 650 1326 510 b 1153 -75 1326 181 1268 40 b 732 -249 1038 -190 897 -249 b 313 -75 568 -249 428 -190 b 139 346 197 40 139 181 b 313 767 139 510 197 650 b 732 940 428 882 568 940 m 646 608 b 819 608 704 629 763 629 l 819 867 b 646 867 763 876 704 876 m 579 851 b 226 499 411 800 278 667 l 501 499 b 579 576 525 532 550 558 m 886 576 b 964 499 915 558 940 532 l 1239 499 b 886 851 1188 667 1054 800 m 732 557 b 583 496 674 557 624 536 b 521 346 542 454 521 404 b 583 196 521 286 542 236 b 732 133 624 154 674 133 b 883 196 792 133 842 154 b 944 346 924 236 944 286 b 883 496 944 404 924 454 b 732 557 842 536 792 557 m 469 258 b 469 432 449 315 449 374 l 211 432 b 211 258 201 374 201 315 m 1254 258 b 1254 432 1264 317 1264 375 l 996 432 b 996 258 1017 375 1017 317 m 579 114 b 501 192 549 135 522 161 l 226 192 b 579 -160 278 24 411 -110 m 964 192 b 886 114 943 161 917 135 l 886 -160 b 1239 192 1054 -110 1188 24 m 819 82 b 646 82 763 61 704 61 l 646 -176 b 819 -176 704 -185 763 -185 "},"a":{"ha":1265,"x_min":0,"x_max":0,"o":"m 682 -299 b 581 -299 658 -333 604 -333 l 224 224 b 139 504 167 306 139 399 b 283 853 139 640 188 757 b 632 997 379 949 496 997 b 982 853 769 997 886 949 b 1126 504 1078 757 1126 640 b 1035 218 1126 403 1096 308 m 631 -256 l 979 254 b 1060 504 1033 333 1060 417 b 935 806 1060 622 1018 722 b 632 931 850 889 750 931 b 331 806 514 931 414 889 b 206 504 247 722 206 622 b 278 260 206 413 229 331 m 464 674 b 393 504 417 626 393 569 b 464 335 393 439 417 382 b 632 264 510 288 567 264 b 801 335 697 264 754 288 b 872 504 849 382 872 439 b 801 674 872 569 849 626 b 632 743 754 719 697 743 b 464 674 567 743 510 719 m 632 676 b 756 626 681 676 721 660 b 806 504 789 592 806 551 b 756 382 806 456 789 415 b 632 331 721 347 681 331 b 511 382 585 331 544 347 b 460 504 476 415 460 456 b 511 626 460 551 476 592 b 632 676 544 660 585 676 "},"b":{"ha":1742,"x_min":0,"x_max":0,"o":"m 1126 111 b 1063 -32 1125 56 1103 8 b 917 -90 1022 -71 974 -90 l 588 -90 l 390 -271 b 328 -282 372 -289 351 -292 b 292 -228 304 -272 292 -254 l 292 -82 b 139 119 203 -56 139 25 l 139 465 b 201 615 139 524 160 574 b 349 676 242 656 292 676 l 521 676 l 521 744 b 589 906 521 807 543 861 b 749 972 633 950 686 972 l 1375 972 b 1536 906 1438 972 1492 950 b 1603 744 1581 861 1603 807 l 1603 363 b 1432 143 1603 258 1532 169 l 1432 -33 b 1396 -90 1432 -60 1419 -79 b 1329 -78 1371 -100 1349 -96 m 749 906 b 636 858 706 906 668 890 b 588 744 604 826 588 789 l 588 363 b 636 249 588 318 604 281 b 749 201 668 217 706 201 l 1126 201 l 1367 -22 l 1367 194 b 1536 363 1479 210 1536 265 l 1536 744 b 1375 906 1536 833 1464 906 m 521 610 l 349 610 b 206 465 269 610 206 544 l 206 119 b 358 -35 206 31 268 -24 l 358 -211 l 561 -24 l 917 -24 b 1060 135 1006 -24 1060 44 l 749 135 b 589 203 686 135 633 157 b 521 363 543 247 521 300 "},"c":{"ha":1289,"x_min":0,"x_max":0,"o":"m 1129 682 b 1150 632 1143 667 1150 650 l 1150 -28 b 1082 -192 1150 -92 1128 -146 b 917 -260 1036 -237 981 -260 l 372 -260 b 207 -192 307 -260 253 -237 b 139 -28 161 -146 139 -92 l 139 739 b 207 904 139 804 161 858 b 372 972 253 950 307 972 l 810 972 b 860 951 829 972 846 965 m 1083 588 l 825 588 b 764 649 792 588 764 614 l 764 906 l 372 906 b 254 857 326 906 286 889 b 204 739 221 824 204 785 l 204 -28 b 254 -146 204 -74 221 -112 b 372 -194 286 -178 326 -194 l 917 -194 b 1083 -28 1008 -194 1083 -119 m 824 893 l 824 647 l 1071 647 m 872 403 b 890 421 885 403 890 408 l 890 450 b 872 469 890 463 885 469 l 415 469 b 397 450 403 469 397 463 l 397 421 b 415 403 397 408 403 403 m 872 188 b 890 206 885 188 890 193 l 890 235 b 872 253 890 247 885 253 l 415 253 b 397 235 403 253 397 247 l 397 206 b 415 188 397 193 403 188 m 872 -31 b 890 -12 885 -31 890 -25 l 890 17 b 872 35 890 29 885 35 l 415 35 b 397 17 403 35 397 29 l 397 -12 b 415 -31 397 -25 403 -31 "},"d":{"ha":1289,"x_min":0,"x_max":0,"o":"m 1132 679 b 1150 636 1144 668 1150 654 l 1150 -28 b 1082 -192 1150 -92 1128 -146 b 917 -260 1036 -237 982 -260 l 372 -260 b 208 -192 308 -260 254 -237 b 139 -28 163 -146 139 -92 l 139 739 b 208 904 139 804 163 858 b 372 972 254 950 308 972 l 814 972 b 857 954 831 972 844 967 m 1085 600 l 838 600 b 778 660 804 600 778 626 l 778 906 l 372 906 b 206 739 281 906 206 831 l 206 -28 b 372 -194 206 -119 281 -194 l 917 -194 b 1036 -146 963 -194 1003 -178 b 1085 -28 1068 -114 1085 -74 m 838 881 l 838 660 l 1058 660 "},"e":{"ha":1497,"x_min":0,"x_max":0,"o":"m 857 910 b 989 872 919 910 963 897 b 1060 736 1015 846 1039 801 l 1143 736 b 1296 674 1203 736 1253 715 b 1358 521 1338 631 1358 581 l 1358 19 b 1296 -133 1358 -40 1338 -90 b 1143 -196 1253 -175 1203 -196 l 354 -196 b 203 -133 294 -196 244 -175 b 139 19 160 -90 139 -40 l 139 521 b 203 674 139 581 160 631 b 354 736 244 715 294 736 l 438 736 b 507 872 458 801 481 846 b 639 910 533 897 576 910 m 639 843 b 529 792 576 839 550 829 b 499 715 513 764 511 757 b 485 669 492 694 488 679 l 354 669 b 204 521 272 669 204 603 l 204 19 b 354 -131 204 -61 274 -131 l 1143 -131 b 1292 19 1225 -131 1292 -62 l 1292 521 b 1143 669 1292 603 1225 669 l 1011 669 b 983 760 1007 683 988 750 b 968 793 981 767 975 778 b 857 843 946 831 918 838 m 749 601 b 529 511 663 601 589 571 b 438 289 468 450 438 376 b 529 69 438 203 468 129 b 749 -21 590 8 664 -22 b 971 71 836 -21 910 10 b 1060 293 1031 132 1061 206 b 968 511 1058 378 1028 451 b 749 601 907 571 833 600 m 922 464 b 993 290 969 415 993 358 b 922 117 993 222 969 165 b 749 44 874 68 817 44 b 575 117 681 44 624 68 b 503 290 526 165 503 222 b 575 464 503 358 526 415 b 749 535 624 511 681 535 b 922 464 817 535 874 511 "},"f":{"ha":1450,"x_min":0,"x_max":0,"o":"m 1065 907 b 1239 836 1133 907 1190 883 b 1311 663 1288 788 1311 731 l 1311 246 b 1239 72 1311 178 1288 121 b 1065 0 1190 24 1133 0 l 682 0 l 432 -232 b 364 -244 411 -250 389 -254 b 325 -186 338 -233 325 -214 l 325 8 b 139 246 215 35 139 133 l 139 663 b 211 836 139 731 163 788 b 385 907 260 883 317 907 m 385 842 b 258 789 336 842 293 824 b 206 663 224 754 206 711 l 206 246 b 390 63 206 139 281 75 l 390 -181 l 656 67 l 1065 67 b 1192 119 1114 67 1157 85 b 1244 246 1226 154 1244 197 l 1244 663 b 1192 789 1244 711 1226 754 b 1065 842 1157 824 1114 842 "},"g":{"ha":1450,"x_min":0,"x_max":0,"o":"m 1065 907 b 1239 836 1133 907 1190 883 b 1311 663 1288 788 1311 731 l 1311 246 b 1239 72 1311 178 1288 121 b 1065 0 1190 24 1133 0 l 681 0 l 431 -232 b 363 -244 410 -250 388 -254 b 324 -186 336 -233 324 -214 l 324 8 b 139 246 217 35 139 133 l 139 663 b 211 836 139 731 163 788 b 383 907 258 883 315 907 m 383 842 b 258 789 335 842 293 824 b 206 663 224 754 206 711 l 206 246 b 390 60 206 136 281 72 l 390 -181 l 656 67 l 1065 67 b 1192 119 1114 67 1157 85 b 1244 246 1226 154 1244 197 l 1244 663 b 1192 789 1244 711 1226 754 b 1065 842 1157 824 1114 842 m 422 614 b 404 632 410 614 404 619 l 404 661 b 422 679 404 674 410 679 l 1026 679 b 1044 661 1039 679 1044 674 l 1044 632 b 1026 614 1044 619 1039 614 m 422 410 b 404 428 410 410 404 415 l 404 458 b 422 476 404 471 410 476 l 1026 476 b 1044 458 1039 476 1044 471 l 1044 428 b 1026 410 1044 415 1039 410 m 422 208 b 404 226 410 208 404 214 l 404 256 b 422 274 404 268 410 274 l 821 274 b 839 256 833 274 839 268 l 839 226 b 821 208 839 214 833 208 "},"h":{"ha":1338,"x_min":0,"x_max":0,"o":"m 390 157 b 522 25 303 63 433 -64 l 1074 576 b 1044 847 1174 675 1131 803 b 842 808 989 882 904 871 l 286 253 b 619 -81 51 18 389 -311 l 1063 363 b 1088 363 1071 371 1079 371 l 1110 342 b 1110 315 1118 332 1118 324 l 667 -128 b 239 300 376 -418 -58 3 l 796 856 b 1121 529 1022 1082 1350 758 l 569 -22 b 344 203 419 -172 189 54 l 781 640 b 807 640 790 649 799 649 l 828 618 b 828 593 838 611 838 603 "},"i":{"ha":1468,"x_min":0,"x_max":0,"o":"m 601 499 b 665 810 575 615 596 719 b 946 951 733 900 828 947 b 1150 901 1019 954 1088 938 b 1151 828 1179 885 1179 844 l 929 693 b 1047 485 944 625 996 536 l 1265 608 b 1329 571 1294 624 1329 604 b 881 214 1333 319 1117 167 l 468 -200 b 182 79 308 -362 31 -71 m 229 32 b 421 -153 140 -57 324 -251 l 858 285 b 965 272 899 276 935 272 b 1261 529 1126 274 1246 372 l 1065 418 b 1017 424 1046 408 1029 411 b 917 551 981 456 947 497 b 861 699 886 604 868 653 b 881 742 858 717 865 731 l 1081 863 b 769 822 969 901 858 893 b 674 689 724 788 692 743 b 675 478 653 629 654 558 m 375 -12 b 315 -74 417 -51 351 -112 b 375 -12 275 -36 336 29 "},"j":{"ha":1475,"x_min":0,"x_max":0,"o":"m 929 118 b 617 0 840 39 736 0 b 279 140 485 0 372 47 b 139 478 186 233 139 346 b 279 815 139 610 186 722 b 617 954 372 908 485 954 b 954 815 749 954 861 908 b 1093 478 1047 722 1093 610 b 976 164 1093 360 1054 256 l 1329 -189 b 1329 -215 1338 -199 1338 -207 l 1308 -236 b 1283 -236 1300 -244 1292 -244 m 617 889 b 326 768 503 889 406 849 b 206 478 246 688 206 590 b 326 188 206 365 246 268 b 617 67 406 107 503 67 b 907 188 729 67 826 107 b 1026 478 986 268 1026 365 b 907 768 1026 590 986 688 b 617 889 826 849 729 889 "},"k":{"ha":1475,"x_min":0,"x_max":0,"o":"m 929 118 b 615 0 839 39 733 0 b 279 140 483 0 372 47 b 139 478 186 233 139 346 b 279 815 139 610 186 722 b 615 954 372 908 483 954 b 954 815 747 954 861 908 b 1093 478 1047 722 1093 610 b 975 164 1093 360 1054 254 l 1329 -189 b 1329 -215 1338 -199 1338 -207 l 1308 -236 b 1283 -236 1300 -244 1292 -244 m 615 889 b 326 768 503 889 406 849 b 206 478 246 688 206 590 b 326 188 206 365 246 268 b 615 67 406 107 503 67 b 907 188 729 67 826 107 b 1026 478 986 268 1026 365 b 907 768 1026 590 986 688 b 615 889 826 849 729 889 m 581 444 l 581 288 b 599 269 581 275 586 269 l 629 269 b 647 288 642 269 647 275 l 647 444 l 804 444 b 822 463 817 444 822 450 l 822 493 b 804 511 822 506 817 511 l 647 511 l 647 667 b 629 685 647 679 642 685 l 599 685 b 581 667 586 685 581 679 l 581 511 l 425 511 b 407 493 413 511 407 506 l 407 463 b 425 444 407 450 413 444 "},"l":{"ha":1475,"x_min":0,"x_max":0,"o":"m 929 118 b 617 0 840 39 736 0 b 279 140 485 0 372 47 b 139 478 186 233 139 346 b 279 815 139 610 186 722 b 617 954 372 908 485 954 b 954 815 749 954 861 908 b 1093 478 1047 722 1093 610 b 976 164 1093 360 1054 256 l 1329 -189 b 1329 -215 1338 -199 1338 -207 l 1308 -236 b 1283 -236 1300 -244 1292 -244 m 617 889 b 326 768 503 889 406 849 b 206 478 246 688 206 590 b 326 188 206 365 246 268 b 617 67 406 107 503 67 b 907 188 729 67 826 107 b 1026 478 986 268 1026 365 b 907 768 1026 590 986 688 b 617 889 826 849 729 889 m 426 444 b 408 463 414 444 408 450 l 408 493 b 426 511 408 506 414 511 l 806 511 b 824 493 818 511 824 506 l 824 463 b 806 444 824 450 818 444 "},"m":{"ha":1521,"x_min":0,"x_max":0,"o":"m 678 549 b 836 894 746 633 799 749 b 903 971 846 936 868 961 b 996 942 936 981 967 971 b 1049 817 1025 914 1042 872 b 1044 660 1054 761 1053 708 b 1008 521 1035 611 1024 564 l 1244 521 b 1367 393 1317 521 1368 458 b 1339 301 1365 360 1357 329 b 1382 190 1371 275 1385 239 b 1326 86 1379 142 1361 107 b 1340 -11 1344 57 1349 25 b 1283 -89 1332 -47 1313 -74 b 1283 -206 1304 -125 1304 -164 b 1185 -268 1263 -247 1229 -268 l 885 -268 b 721 -228 843 -268 789 -254 b 581 -182 653 -201 606 -186 l 581 -200 b 519 -261 581 -235 553 -261 l 200 -261 b 139 -200 165 -261 139 -235 l 139 425 b 200 486 139 458 165 486 l 519 486 b 581 428 551 486 579 460 m 581 -117 b 728 -162 611 -121 660 -136 b 885 -201 796 -189 847 -201 l 1185 -201 b 1229 -165 1207 -201 1222 -189 b 1215 -108 1236 -140 1232 -121 b 1201 -65 1200 -99 1196 -83 b 1236 -35 1207 -46 1218 -36 b 1278 7 1260 -33 1274 -19 b 1258 67 1282 32 1275 51 b 1258 128 1240 82 1240 111 b 1304 156 1269 139 1293 138 b 1315 214 1314 171 1318 190 b 1285 257 1311 238 1301 251 b 1276 333 1251 268 1247 313 b 1299 404 1297 346 1306 369 b 1244 456 1292 439 1274 456 l 976 456 b 936 517 943 456 924 485 b 985 785 963 578 988 679 b 950 894 983 838 971 874 b 900 878 926 918 910 913 b 729 508 860 722 803 599 l 581 322 m 514 421 l 204 421 l 204 -196 l 514 -196 "},"n":{"ha":1604,"x_min":0,"x_max":0,"o":"m 582 192 b 472 388 518 240 482 306 l 444 636 b 803 972 418 851 610 978 b 1163 636 999 978 1189 851 l 1135 388 b 1025 192 1125 306 1089 240 l 1342 40 b 1467 -147 1425 1 1471 -79 b 1296 -272 1463 -214 1400 -272 l 311 -272 b 140 -147 207 -272 144 -214 b 265 40 136 -79 182 1 m 294 -19 b 311 -207 189 -65 160 -212 l 1296 -207 b 1313 -19 1447 -212 1418 -65 l 961 149 b 954 222 921 169 919 199 b 1069 396 1028 274 1060 314 l 1097 644 b 803 906 1117 818 957 910 b 510 644 647 910 490 818 l 538 396 b 596 269 544 336 572 292 b 656 219 608 257 628 240 b 651 153 683 199 686 168 "},"o":{"ha":1650,"x_min":0,"x_max":0,"o":"m 1075 96 l 982 150 b 954 189 964 163 954 175 b 989 232 954 201 965 217 b 1094 396 1056 278 1088 322 l 1124 644 b 829 906 1143 818 983 910 b 536 644 674 910 517 818 l 564 396 b 674 231 574 319 606 276 b 675 150 718 199 718 171 l 322 -19 b 339 -207 217 -65 190 -212 l 1064 -207 b 1082 -225 1076 -207 1082 -212 l 1082 -254 b 1064 -274 1082 -267 1076 -274 l 339 -274 b 193 -212 269 -274 221 -253 b 181 -76 164 -172 160 -126 b 294 40 201 -25 239 14 l 611 193 b 499 388 546 242 508 306 l 469 636 b 644 936 453 776 532 886 b 829 972 700 960 761 972 b 1189 636 1025 978 1215 851 l 1161 388 b 1043 190 1151 304 1111 239 l 1108 153 b 1114 128 1118 147 1119 139 l 1100 103 b 1075 96 1093 92 1085 89 m 1353 -129 l 1489 -265 b 1514 -265 1497 -274 1506 -274 l 1535 -244 b 1535 -218 1543 -235 1543 -226 l 1400 -83 l 1535 53 b 1535 78 1543 61 1543 69 l 1514 99 b 1489 99 1506 107 1497 107 l 1353 -36 l 1217 99 b 1192 99 1208 107 1200 107 l 1171 78 b 1171 53 1163 69 1163 61 l 1306 -83 l 1171 -218 b 1171 -244 1163 -226 1163 -235 l 1192 -265 b 1217 -265 1201 -275 1210 -275 "},"p":{"ha":1614,"x_min":0,"x_max":0,"o":"m 1110 76 l 982 150 b 954 189 964 163 954 175 b 988 232 954 201 965 217 b 1094 396 1054 278 1088 319 l 1124 644 b 829 906 1143 818 983 910 b 536 644 674 910 517 818 l 564 396 b 674 231 574 319 606 276 b 675 150 718 199 718 171 l 322 -19 b 339 -207 217 -65 190 -212 l 1064 -207 b 1082 -225 1076 -207 1082 -212 l 1082 -254 b 1064 -274 1082 -267 1076 -274 l 339 -274 b 193 -212 269 -274 221 -253 b 181 -76 164 -172 160 -126 b 294 40 201 -25 239 14 l 611 193 b 499 388 546 242 508 306 l 469 636 b 644 936 453 776 532 886 b 829 972 700 960 761 972 b 1189 636 1025 978 1215 851 l 1161 388 b 1043 190 1151 304 1111 239 l 1143 133 b 1149 108 1153 128 1154 119 l 1135 83 b 1110 76 1128 72 1119 69 m 1501 114 b 1494 138 1508 124 1506 132 l 1467 151 b 1443 144 1456 158 1447 156 l 1256 -211 l 1144 -39 b 1119 -35 1138 -29 1129 -28 l 1094 -51 b 1089 -76 1085 -57 1083 -65 l 1208 -258 b 1308 -253 1232 -296 1288 -293 "},"q":{"ha":1660,"x_min":0,"x_max":0,"o":"m 1131 64 l 982 150 b 954 189 964 163 954 175 b 989 232 954 201 965 217 b 1094 396 1056 278 1088 322 l 1124 644 b 829 906 1143 818 983 910 b 536 644 674 910 517 818 l 564 396 b 674 231 574 319 606 276 b 675 150 713 204 719 176 l 322 -19 b 339 -207 217 -65 190 -212 l 1101 -207 b 1119 -225 1114 -207 1119 -212 l 1119 -254 b 1101 -272 1119 -267 1114 -272 b 721 -274 1021 -272 894 -272 l 339 -274 b 193 -212 269 -274 221 -253 b 181 -76 164 -172 160 -126 b 294 40 201 -25 239 14 l 611 193 b 499 388 546 242 508 306 l 469 636 b 644 936 453 776 532 886 b 829 972 700 960 761 972 b 1189 636 1025 978 1215 851 l 1161 388 b 1043 190 1151 304 1111 239 l 1164 121 b 1171 96 1174 115 1176 107 l 1156 71 b 1131 64 1150 61 1142 58 m 1311 -269 b 1329 -287 1311 -282 1317 -287 l 1358 -287 b 1376 -269 1371 -287 1376 -282 l 1376 -112 l 1533 -112 b 1551 -94 1546 -112 1551 -107 l 1551 -65 b 1533 -47 1551 -53 1546 -47 l 1376 -47 l 1376 110 b 1358 128 1376 122 1371 128 l 1329 128 b 1311 110 1317 128 1311 122 l 1311 -47 l 1154 -47 b 1136 -65 1142 -47 1136 -53 l 1136 -94 b 1154 -112 1136 -107 1142 -112 l 1311 -112 "},"r":{"ha":1647,"x_min":0,"x_max":0,"o":"m 319 -283 b 142 -156 210 -283 146 -222 b 265 29 136 -87 182 -6 l 536 136 b 306 219 442 154 365 182 b 290 310 272 240 267 278 b 440 603 353 392 410 513 b 496 742 456 649 474 694 b 825 972 558 878 636 968 b 1085 861 946 972 1035 926 b 1154 742 1108 829 1132 789 b 1275 453 1199 647 1222 561 b 1361 310 1301 399 1329 350 b 1344 219 1385 281 1378 240 b 1118 136 1288 183 1211 156 l 1388 26 b 1511 -157 1472 -8 1517 -89 b 1332 -283 1506 -224 1439 -283 m 1332 -217 b 1361 -33 1489 -217 1464 -75 l 1033 107 b 1007 156 1013 117 1003 132 b 1047 192 1010 178 1024 190 b 1306 274 1143 199 1229 226 b 1206 443 1268 321 1235 378 b 1135 617 1176 508 1153 565 b 1071 761 1117 667 1094 715 b 825 907 1021 854 943 907 b 517 617 644 914 569 769 b 444 443 499 565 474 508 b 344 274 415 378 382 321 b 604 192 421 226 508 199 b 644 156 628 190 642 178 b 618 107 647 132 639 117 l 290 -32 b 319 -217 186 -72 165 -222 "},"s":{"ha":2204,"x_min":0,"x_max":0,"o":"m 610 192 b 501 389 546 243 510 308 l 472 636 b 832 972 446 851 636 978 b 1153 821 967 972 1085 925 b 1192 636 1188 768 1200 707 l 1163 389 b 1054 192 1154 308 1118 243 l 1369 40 b 1483 -75 1425 14 1463 -25 b 1472 -211 1504 -125 1500 -171 b 1325 -272 1443 -251 1394 -272 l 339 -272 b 193 -211 269 -272 221 -251 b 181 -75 164 -171 160 -125 b 294 40 201 -25 239 14 m 322 -19 b 339 -207 221 -68 188 -207 l 1325 -207 b 1342 -19 1476 -207 1443 -68 l 989 150 b 992 228 951 168 958 206 b 1069 311 1025 251 1040 260 b 1097 396 1085 336 1093 364 l 1126 644 b 832 906 1146 818 986 910 b 538 644 678 910 518 818 l 567 396 b 675 226 574 326 610 269 b 671 149 713 203 711 167 m 1458 279 b 1392 411 1419 313 1397 357 l 1371 582 b 1438 760 1363 657 1385 717 b 1629 825 1489 803 1553 825 b 1822 760 1706 825 1769 803 b 1888 582 1874 717 1896 657 l 1868 411 b 1801 279 1861 356 1839 311 l 2004 182 b 1969 -54 2135 126 2129 -61 l 1558 -54 b 1540 -36 1546 -54 1540 -49 l 1540 -6 b 1558 13 1540 7 1546 13 l 1969 13 b 1976 122 2064 13 2036 92 l 1736 236 b 1733 310 1701 254 1700 288 b 1803 418 1774 339 1797 375 l 1822 590 b 1772 715 1828 644 1811 686 b 1629 758 1732 744 1685 758 b 1488 715 1574 758 1526 744 b 1438 590 1447 686 1431 644 l 1457 418 b 1525 310 1461 375 1485 339 b 1521 236 1557 288 1556 254 l 1344 150 b 1319 158 1335 144 1326 147 l 1307 185 b 1315 208 1301 194 1304 203 l 1458 279 "},"t":{"ha":2899,"x_min":0,"x_max":0,"o":"m 1272 193 b 1163 390 1208 244 1172 310 l 1135 638 b 1494 974 1108 853 1299 979 b 1681 938 1563 974 1624 961 b 1854 638 1792 888 1871 778 l 1825 390 b 1715 193 1815 308 1779 242 l 2032 42 b 2146 -74 2088 15 2125 -24 b 2135 -210 2167 -124 2163 -169 b 1988 -271 2106 -250 2057 -271 l 1001 -271 b 856 -210 932 -271 883 -250 b 843 -74 826 -169 822 -124 b 957 42 864 -24 901 15 m 985 -18 b 1001 -206 879 -61 853 -211 l 1988 -206 b 2004 -18 2139 -206 2106 -67 l 1651 151 b 1654 229 1614 169 1621 207 b 1694 261 1671 242 1685 251 b 1760 397 1715 278 1753 335 l 1788 646 b 1494 907 1807 819 1650 911 b 1200 646 1340 911 1181 819 l 1229 397 b 1338 228 1236 328 1272 271 b 1333 150 1375 204 1372 168 m 265 -53 b 236 185 93 -53 110 139 l 400 244 b 250 292 344 249 294 264 b 236 368 222 310 215 344 b 339 569 279 424 317 507 b 378 667 349 601 363 633 b 611 826 422 758 476 826 b 867 611 765 832 826 722 b 985 368 894 538 935 431 b 972 292 1006 342 1000 310 b 832 243 939 271 892 254 l 985 183 b 996 160 996 179 1000 171 l 983 132 b 960 122 979 119 972 117 l 749 214 b 763 292 714 231 724 289 b 924 340 822 296 875 313 b 847 482 896 378 871 425 b 792 622 824 539 804 585 b 611 760 765 694 704 760 b 431 622 518 760 457 694 b 376 482 418 585 400 539 b 299 340 353 425 326 378 b 460 292 347 313 400 296 b 496 258 479 290 492 279 b 472 214 500 238 492 222 l 260 124 b 265 13 201 99 167 13 l 768 13 b 786 -6 781 13 786 7 l 786 -35 b 768 -53 786 -47 781 -53 l 265 -53 m 2121 281 b 2053 413 2082 313 2060 357 l 2033 583 b 2100 761 2025 658 2047 718 b 2292 826 2151 804 2215 826 b 2485 761 2368 826 2432 804 b 2550 583 2536 718 2558 658 l 2531 413 b 2464 281 2524 358 2501 315 l 2667 183 b 2632 -53 2797 128 2792 -60 l 2221 -53 b 2203 -35 2208 -53 2203 -47 l 2203 -4 b 2221 14 2203 8 2208 14 l 2632 14 b 2639 124 2724 14 2699 93 l 2399 238 b 2396 311 2364 256 2363 289 b 2464 419 2436 340 2460 376 l 2485 592 b 2435 717 2490 646 2474 688 b 2292 760 2394 746 2347 760 b 2150 717 2236 760 2189 746 b 2100 592 2110 688 2093 646 l 2119 419 b 2188 311 2124 376 2147 340 b 2183 238 2219 289 2218 256 l 2007 151 b 1982 160 1997 146 1989 149 l 1969 186 b 1978 210 1964 196 1967 204 l 2121 281 "},"u":{"ha":2794,"x_min":0,"x_max":0,"o":"m 1192 193 b 1082 390 1128 242 1092 308 l 1054 638 b 1413 974 1028 853 1219 979 b 1772 638 1608 979 1799 853 l 1744 390 b 1635 193 1735 308 1699 242 l 1951 42 b 2076 -146 2035 3 2081 -78 b 1906 -271 2072 -212 2010 -271 l 921 -271 b 750 -146 817 -271 754 -212 b 875 42 746 -78 792 3 m 904 -18 b 921 -206 799 -67 768 -206 l 1906 -206 b 1922 -18 2058 -206 2028 -67 l 1571 151 b 1572 229 1533 172 1539 207 b 1679 397 1635 272 1671 328 l 1707 646 b 1413 907 1726 819 1567 911 b 1119 646 1257 911 1100 819 l 1147 397 b 1257 228 1156 328 1192 271 b 1253 150 1292 204 1292 168 m 799 281 l 942 210 b 950 186 951 206 954 197 l 936 160 b 913 151 931 149 922 146 l 736 238 b 732 311 701 256 700 289 b 800 419 772 340 796 376 l 819 592 b 771 717 826 646 810 688 b 628 760 731 746 683 760 b 486 717 572 760 525 746 b 435 592 446 688 429 646 l 454 419 b 524 311 460 376 483 340 b 519 238 557 289 557 256 l 281 124 b 288 14 221 93 193 14 l 699 14 b 717 -4 711 14 717 8 l 717 -35 b 699 -53 717 -47 711 -53 l 288 -53 b 253 183 128 -60 122 128 l 456 281 b 389 413 418 313 396 357 l 369 583 b 436 761 361 658 383 718 b 628 826 488 804 551 826 b 819 761 704 826 768 804 b 885 583 871 718 893 658 l 865 413 b 799 281 860 358 838 314 m 2039 281 b 1972 413 2001 315 1979 358 l 1953 583 b 2019 761 1944 658 1967 718 b 2211 826 2071 804 2135 826 b 2403 761 2288 826 2351 804 b 2468 583 2454 718 2476 658 l 2449 413 b 2382 281 2443 358 2421 314 l 2586 183 b 2671 96 2628 163 2656 133 b 2660 -7 2686 58 2682 24 b 2550 -53 2638 -37 2601 -53 l 2139 -53 b 2121 -35 2126 -53 2121 -47 l 2121 -4 b 2139 14 2121 8 2126 14 l 2550 14 b 2557 124 2644 14 2617 93 l 2318 238 b 2315 311 2281 256 2282 289 b 2383 419 2356 340 2379 376 l 2403 592 b 2354 717 2410 646 2393 688 b 2211 760 2314 746 2267 760 b 2069 717 2156 760 2108 746 b 2018 592 2029 688 2013 646 l 2038 419 b 2107 311 2043 376 2067 340 b 2103 238 2139 289 2138 256 l 1925 151 b 1901 160 1915 144 1907 147 l 1888 186 b 1896 210 1883 197 1886 206 "},"v":{"ha":1561,"x_min":0,"x_max":0,"o":"m 814 -122 l 961 -122 b 979 -140 974 -122 979 -128 l 979 -169 b 961 -187 979 -182 974 -187 l 599 -187 b 581 -169 586 -187 581 -182 l 581 -140 b 599 -122 581 -128 586 -122 l 747 -122 l 747 72 b 411 321 593 83 465 176 b 161 597 288 400 204 493 b 296 853 108 719 142 853 l 382 853 l 382 911 b 443 972 382 944 408 972 l 1118 972 b 1179 911 1151 972 1179 944 l 1179 853 l 1263 853 b 1397 597 1417 853 1450 719 b 1150 322 1354 493 1271 401 b 814 72 1096 178 968 83 m 1113 906 l 447 906 l 447 493 b 539 238 447 390 478 306 b 779 136 599 169 679 136 b 1021 238 879 136 960 169 b 1113 493 1082 306 1113 390 m 386 419 b 382 493 383 443 382 468 l 382 786 l 296 786 b 222 622 193 786 189 700 b 386 419 253 549 307 482 m 1179 786 l 1179 493 b 1174 421 1179 464 1178 440 b 1336 622 1253 482 1307 549 b 1263 786 1369 700 1365 786 m 439 -310 b 421 -292 426 -310 421 -304 l 421 -261 b 439 -243 421 -249 426 -243 l 1121 -243 b 1139 -261 1133 -243 1139 -249 l 1139 -292 b 1121 -310 1139 -304 1133 -310 l 439 -310 "},"w":{"ha":1113,"x_min":0,"x_max":0,"o":"m 186 957 b 176 967 181 960 178 963 b 194 1007 175 971 181 985 b 219 1014 201 1017 210 1019 l 465 872 b 497 819 486 860 497 843 l 497 699 l 914 699 b 974 636 947 699 975 671 b 814 -253 975 360 814 -19 b 753 -312 814 -286 786 -312 l 360 -312 b 299 -253 328 -312 300 -286 b 139 636 297 -19 140 360 b 200 699 139 671 167 699 l 431 699 l 431 817 l 186 957 m 431 632 l 206 632 b 238 382 208 556 219 472 b 431 356 300 350 365 342 m 497 632 l 497 375 b 565 401 503 376 525 386 b 644 429 606 417 632 426 b 711 442 657 432 679 436 b 883 415 774 453 824 442 b 908 632 897 486 906 558 m 749 -247 b 824 165 753 -125 778 -7 b 869 350 846 251 861 313 b 626 354 769 393 708 381 b 514 311 585 340 547 326 b 256 303 446 281 349 269 b 290 169 263 272 275 228 b 325 28 306 110 317 63 b 365 -247 342 -44 361 -158 "},"x":{"ha":1075,"x_min":0,"x_max":0,"o":"m 936 126 b 538 -268 936 -135 738 -268 b 139 126 338 -268 139 -135 l 139 592 b 936 592 139 1111 936 1111 m 869 592 b 206 592 869 1025 206 1025 l 206 126 b 869 126 206 -310 869 -312 m 571 514 b 553 494 571 501 565 494 l 522 494 b 504 514 510 494 504 501 l 504 738 b 522 756 504 750 510 756 l 553 756 b 571 738 565 756 571 750 "},"y":{"ha":1424,"x_min":0,"x_max":0,"o":"m 642 726 b 606 638 619 692 611 675 b 613 588 601 618 604 601 b 603 564 617 576 614 568 l 575 553 b 551 564 564 549 556 553 b 551 697 528 608 536 664 b 586 761 558 714 571 735 b 622 865 613 806 624 840 b 574 963 621 890 604 922 b 576 988 567 972 567 981 l 600 1006 b 626 1003 610 1013 619 1013 b 690 867 667 949 689 904 b 642 726 692 829 676 782 m 833 726 b 804 588 806 681 785 640 b 794 564 808 576 806 568 l 767 553 b 743 564 756 549 747 553 b 778 761 713 640 735 696 b 814 865 804 806 815 840 b 765 963 813 890 796 922 b 769 988 758 972 760 981 l 793 1006 b 818 1003 803 1014 811 1013 b 882 867 858 949 881 904 b 833 726 883 829 868 782 m 1019 494 b 1081 433 1054 494 1081 468 l 1081 399 l 1125 399 b 1243 349 1175 399 1214 382 b 1286 240 1272 315 1286 279 b 1243 131 1286 200 1272 164 b 1125 81 1214 97 1175 81 l 1049 81 b 621 -146 975 -100 786 -183 b 307 258 454 -117 307 28 l 307 433 b 368 494 307 468 333 494 m 1015 429 l 372 429 l 372 258 b 1015 258 372 -201 1015 -201 m 1081 332 l 1081 258 b 1069 147 1081 219 1076 182 l 1125 147 b 1210 194 1165 147 1193 163 b 1210 286 1225 225 1225 256 b 1125 332 1193 317 1165 332 m 1231 -287 b 1249 -269 1243 -287 1249 -282 l 1249 -239 b 1231 -221 1249 -226 1243 -221 l 157 -221 b 139 -239 144 -221 139 -226 l 139 -269 b 157 -287 139 -282 144 -287 "},"z":{"ha":1421,"x_min":0,"x_max":0,"o":"m 318 682 b 388 831 318 742 342 792 b 546 871 433 868 486 882 l 1189 753 b 1282 644 1251 742 1282 706 l 1282 -82 b 1224 -140 1282 -114 1256 -140 l 369 -140 b 207 -72 306 -140 251 -118 b 139 90 161 -26 139 28 l 139 397 b 318 622 139 504 214 599 m 385 628 l 1172 628 b 1178 689 1225 628 1236 678 l 533 806 b 431 779 494 813 460 804 b 385 682 400 754 385 722 m 1215 568 b 1172 561 1201 564 1188 561 l 369 561 b 206 397 279 561 206 488 l 206 90 b 369 -74 206 0 279 -74 l 1215 -74 m 311 283 b 311 190 286 257 285 215 b 403 190 338 165 376 165 b 404 283 429 215 429 257 b 311 283 379 310 336 310 "}}}
